<svg width="430" height="372" viewBox="0 0 430 372" fill="none" xmlns="http://www.w3.org/2000/svg">
<path d="M205.354 48.0931C214.192 39.2407 214.192 24.8882 205.354 16.0359C196.517 7.18356 182.188 7.18357 173.35 16.0359C164.513 24.8882 164.513 39.2407 173.35 48.093C182.188 56.9454 196.517 56.9454 205.354 48.0931Z" fill="#FBD931"/>
<path d="M357.345 209.778C355.073 220.891 351.024 231.539 345.518 241.486C308.699 308.081 207.797 344.077 156.646 289.442C149.306 281.595 142.985 273.456 137.625 265.114C120.09 237.752 113.07 208.29 115.254 180.374C117.031 157.68 124.896 136.035 138.12 117.395C143.364 109.986 149.481 103.044 156.413 96.7137C251.665 9.37806 374.735 124.25 357.345 209.778Z" fill="#017EFA"/>
<path d="M345.518 241.486C308.699 308.082 207.797 344.078 156.646 289.442C149.306 281.595 142.985 273.456 137.625 265.114C137.509 263.364 137.421 261.555 137.334 259.688C136.402 242.157 136.343 232.997 155.277 231.685C159.909 231.364 167.162 230.751 175.93 229.993C177.503 227.426 182.746 218.675 186.94 209.632C182.775 209.107 138.79 203.273 124.109 190.438C121.138 187.842 118.138 184.341 115.254 180.345C103.136 163.66 92.5334 138.427 91.0478 134.606C89.4749 130.581 89.3292 127.401 90.2322 121.45C89.5623 122.238 83.5908 114.391 84.4647 111.62C85.9212 107.099 100.136 97.6183 108.059 96.6848C109.457 96.5098 113.419 103.423 112.516 103.598C117.468 104.24 127.343 106.632 129.585 109.228C130.576 110.366 134.1 113.516 138.091 117.396C144.558 123.638 152.219 131.777 152.335 136.327C152.539 143.707 153.646 143.62 155.918 143.824C158.219 144.028 160.113 145.137 159.909 147.82C159.705 150.533 160.113 152.633 164.715 151.904C169.317 151.204 172.405 151.992 173.308 155.813C174.211 159.605 186.795 159.722 191.572 159.809C196.349 159.897 220.642 161.793 223.497 163.514C225.216 147.12 231.77 121.159 231.77 121.159C231.77 121.159 211.787 114.508 212.079 111.299C212.253 109.491 228.245 103.277 238.673 99.4268C238.819 99.3685 245.111 100.127 248.49 98.7268C248.49 98.7268 242.926 113.954 260.782 120.138C260.782 120.138 261.015 123.113 262.297 123.288C263.171 123.405 264.482 122.705 265.064 119.934C265.326 118.679 265.443 116.987 265.326 114.77C265.326 114.77 265.443 114.77 265.676 114.77H265.705C268.647 114.8 271.414 115.091 273.715 115.587C276.92 116.287 279.163 117.454 279.629 119C280.357 121.363 278.58 124.134 271.443 125.213C268.763 133.352 269.171 140.469 271.735 140.849C274.56 141.286 275.638 140.353 277.007 139.361C278.376 138.369 279.454 143.416 273.715 147.237C269.23 150.212 263.608 151.35 259.209 148.433C258.102 156.338 256.908 165.235 256.005 173.344C258.044 173.373 287.989 192.48 296.086 196.768C301.33 199.568 311.816 205.986 319.768 215.174C337.071 214.212 342.11 215.524 343.974 229.03C344.411 231.597 344.936 235.973 345.518 241.486Z" fill="white"/>
<path d="M236.867 113.779C236.256 113.516 235.993 112.787 236.256 112.203L237.508 109.403C237.77 108.791 238.498 108.528 239.081 108.791C239.693 109.053 239.955 109.782 239.693 110.366L238.44 113.166C238.207 113.779 237.479 114.07 236.867 113.779Z" fill="#202D37"/>
<path d="M244.208 117.104C243.596 116.841 243.334 116.112 243.596 115.529L244.849 112.728C245.111 112.116 245.839 111.853 246.422 112.116C247.033 112.378 247.296 113.108 247.033 113.691L245.781 116.491C245.519 117.104 244.82 117.366 244.208 117.104Z" fill="#202D37"/>
<path d="M193.407 38.2279C192.941 39.4239 192.271 40.299 191.455 40.8533C190.64 41.4075 189.591 41.6117 188.339 41.495L187.086 44.6454C187.057 44.7329 186.999 44.7912 186.911 44.8496C186.824 44.8787 186.737 44.8787 186.649 44.8496L182.513 43.1869C182.425 43.1577 182.367 43.0994 182.309 43.0119C182.28 42.9243 182.28 42.8368 182.309 42.7493L183.416 39.949C182.658 39.5989 181.959 39.2781 181.377 38.928C181.289 38.8989 181.26 38.8113 181.231 38.7238C181.202 38.6363 181.202 38.5488 181.231 38.4613L182.892 35.2526C182.95 35.1651 183.008 35.1067 183.125 35.0775C183.241 35.0484 183.328 35.0776 183.416 35.1359C183.649 35.2817 183.882 35.4568 184.144 35.6026C184.406 35.7485 184.727 35.9527 185.134 36.1568C185.542 36.3902 185.921 36.5652 186.3 36.7111C186.707 36.8861 187.057 36.9736 187.377 36.9736C187.698 36.9736 187.96 36.9153 188.135 36.7986C188.31 36.6819 188.455 36.5652 188.543 36.4486C188.63 36.3319 188.717 36.2152 188.746 36.1277C188.805 36.011 188.805 35.8651 188.834 35.7193C188.834 35.5734 188.834 35.3693 188.776 35.1067C188.717 34.8442 188.572 34.5525 188.339 34.2316C188.076 33.9107 187.756 33.5899 187.319 33.2982C186.824 32.9481 186.416 32.5397 186.037 32.0438C185.659 31.548 185.367 30.9937 185.105 30.3811C184.872 29.7686 184.756 29.0685 184.756 28.31C184.756 27.5516 184.931 26.764 185.222 25.9764C185.659 24.868 186.3 24.0512 187.173 23.5261C188.018 23.0011 189.067 22.7677 190.261 22.826L191.543 19.5881C191.572 19.5006 191.63 19.4423 191.747 19.384C191.834 19.3548 191.921 19.3256 192.009 19.384L196.145 21.0467C196.233 21.0758 196.291 21.1633 196.349 21.2509C196.378 21.3384 196.378 21.455 196.349 21.5426L195.242 24.3429C195.97 24.6638 196.67 25.0138 197.369 25.393C197.456 25.4222 197.485 25.5097 197.543 25.5972C197.573 25.6847 197.573 25.7722 197.514 25.8598L195.854 29.0685C195.796 29.156 195.737 29.2143 195.621 29.2435C195.504 29.2727 195.417 29.2727 195.33 29.2143C194.281 28.5142 193.291 27.96 192.358 27.5808C191.98 27.4058 191.63 27.3183 191.31 27.3183C190.989 27.3183 190.727 27.3766 190.552 27.4933C190.378 27.61 190.232 27.7267 190.115 27.8433C190.028 27.96 189.941 28.0767 189.912 28.1642C189.882 28.2809 189.853 28.3976 189.824 28.5434C189.824 28.6893 189.824 28.8935 189.882 29.156C189.941 29.4185 190.086 29.7102 190.349 30.0311C190.611 30.352 190.931 30.6728 191.368 30.9645C191.834 31.3146 192.271 31.723 192.65 32.2189C193.028 32.7148 193.349 33.269 193.582 33.8816C193.815 34.4941 193.931 35.1942 193.931 35.9527C193.873 36.6819 193.698 37.4403 193.407 38.2279Z" fill="#202D37"/>
<path d="M186.766 45.2872C186.678 45.2872 186.562 45.258 186.474 45.2289L182.338 43.5662C182.134 43.4786 181.988 43.3328 181.901 43.1578C181.814 42.9536 181.814 42.7494 181.901 42.5452L182.862 40.1241C182.251 39.8324 181.668 39.5407 181.173 39.2781C180.998 39.1906 180.882 39.0156 180.823 38.8406C180.765 38.6656 180.765 38.4614 180.852 38.2572C180.852 38.2572 180.852 38.228 180.882 38.228L182.542 35.0193C182.658 34.8151 182.833 34.6692 183.066 34.6109C183.299 34.5525 183.503 34.6109 183.707 34.7276C183.94 34.8734 184.173 35.0484 184.406 35.1943C184.639 35.3401 184.96 35.5152 185.367 35.7485C185.746 35.9527 186.125 36.1277 186.474 36.2736C186.824 36.4194 187.144 36.507 187.406 36.507C187.698 36.507 187.843 36.4486 187.902 36.3903C188.047 36.3028 188.164 36.1861 188.222 36.1277C188.309 36.0402 188.339 35.9527 188.368 35.9236C188.397 35.8652 188.426 35.7777 188.426 35.661C188.426 35.5735 188.426 35.4277 188.368 35.136C188.339 35.0193 188.251 34.7859 187.989 34.4359C187.756 34.1442 187.465 33.8525 187.086 33.5899C186.562 33.2399 186.096 32.7732 185.688 32.2481C185.28 31.723 184.96 31.1396 184.697 30.4687C184.435 29.7978 184.29 29.0394 184.319 28.2226C184.319 27.4058 184.494 26.5599 184.843 25.7431C185.309 24.5472 186.037 23.6721 186.969 23.0886C187.814 22.5636 188.834 22.3011 189.999 22.3011L191.164 19.3549C191.251 19.1507 191.368 19.0048 191.572 18.9173C191.776 18.8298 191.98 18.8006 192.184 18.8881L196.32 20.5508C196.524 20.6384 196.669 20.7842 196.757 20.9884C196.844 21.1926 196.844 21.3968 196.757 21.601L195.796 24.0221C196.407 24.3138 196.99 24.6055 197.572 24.8972C197.747 24.9847 197.864 25.1597 197.951 25.3348C198.038 25.539 198.009 25.7723 197.893 25.9765L196.232 29.1852C196.116 29.3894 195.941 29.5061 195.737 29.5936C195.504 29.652 195.271 29.6228 195.067 29.4769C194.048 28.806 193.087 28.2518 192.184 27.8726C191.834 27.7267 191.543 27.6392 191.281 27.6392C191.048 27.6392 190.873 27.6684 190.756 27.7559C190.552 27.8726 190.465 27.9601 190.407 28.0184C190.348 28.0768 190.29 28.1643 190.261 28.2226C190.232 28.2518 190.232 28.3393 190.203 28.4851C190.203 28.5727 190.203 28.7185 190.261 28.981C190.29 29.1852 190.436 29.4186 190.64 29.6811C190.873 29.9728 191.164 30.2645 191.543 30.5271C192.038 30.9063 192.504 31.3438 192.912 31.8689C193.32 32.394 193.64 32.9774 193.902 33.6483C194.164 34.3192 194.281 35.0776 194.281 35.8944C194.281 36.7111 194.106 37.5279 193.757 38.3738C193.232 39.6573 192.533 40.5908 191.659 41.2034C190.844 41.7576 189.795 41.991 188.572 41.9326L187.436 44.7913C187.348 44.9955 187.203 45.1413 187.028 45.2289C186.969 45.258 186.853 45.2872 186.766 45.2872ZM182.717 42.7786L186.707 44.3829L187.931 41.32C187.989 41.145 188.193 41.0283 188.368 41.0575C189.533 41.1742 190.494 40.97 191.222 40.5033C191.951 40.0074 192.562 39.1906 192.999 38.0821C193.29 37.3529 193.436 36.6236 193.465 35.9236C193.465 35.2235 193.378 34.5817 193.145 33.9983C192.912 33.4149 192.62 32.8898 192.271 32.4523C191.921 31.9856 191.514 31.6064 191.077 31.2855C190.64 30.9646 190.261 30.6146 189.97 30.2645C189.678 29.8853 189.504 29.5353 189.445 29.2144C189.387 28.9227 189.358 28.6602 189.358 28.4851C189.358 28.2809 189.416 28.1059 189.475 27.9601C189.533 27.7851 189.649 27.6392 189.766 27.4934C189.882 27.3475 190.057 27.2308 190.29 27.085C190.552 26.91 190.902 26.8224 191.31 26.8224C191.688 26.8224 192.096 26.91 192.533 27.1141C193.465 27.4934 194.456 28.0476 195.504 28.7477L197.077 25.6848C196.436 25.3348 195.737 25.0139 195.038 24.693C194.834 24.6055 194.718 24.343 194.805 24.1388L195.883 21.3968L191.863 19.7924L190.611 22.972C190.552 23.147 190.378 23.2637 190.174 23.2345C189.067 23.1762 188.106 23.4095 187.348 23.8762C186.562 24.343 185.979 25.1014 185.571 26.0932C185.28 26.8224 185.134 27.5517 185.134 28.2518C185.134 28.9519 185.222 29.5936 185.455 30.177C185.688 30.7604 185.979 31.2855 186.329 31.7522C186.678 32.2189 187.086 32.5981 187.523 32.919C187.989 33.2399 188.368 33.5899 188.63 33.94C188.921 34.3192 189.096 34.6692 189.154 34.9901C189.212 35.2818 189.242 35.5152 189.212 35.7194C189.212 35.9236 189.154 36.0986 189.096 36.2736C189.038 36.4194 188.95 36.5653 188.805 36.7112C188.688 36.857 188.513 37.0029 188.309 37.1487C188.047 37.3237 187.698 37.4112 187.319 37.4112C186.94 37.4112 186.533 37.2946 186.067 37.1195C185.688 36.9737 185.28 36.7695 184.872 36.5361C184.464 36.3028 184.115 36.1277 183.853 35.9527C183.62 35.8069 183.387 35.661 183.183 35.5152L181.61 38.578C182.163 38.8989 182.833 39.2198 183.561 39.5407C183.765 39.6282 183.882 39.8907 183.794 40.0949L182.717 42.7786Z" fill="#202D37"/>
<path d="M368.646 100.769C368.996 101.323 369.142 101.848 369.113 102.344C369.083 102.84 368.85 103.335 368.443 103.802L369.346 105.261C369.375 105.29 369.375 105.348 369.375 105.407C369.375 105.465 369.346 105.494 369.287 105.523L367.365 106.719C367.336 106.748 367.277 106.748 367.219 106.748C367.161 106.748 367.132 106.719 367.103 106.661L366.316 105.377C365.937 105.582 365.617 105.757 365.297 105.902C365.268 105.932 365.209 105.932 365.18 105.902C365.122 105.873 365.093 105.844 365.064 105.815L364.277 104.181C364.248 104.123 364.248 104.094 364.277 104.036C364.306 103.977 364.335 103.948 364.394 103.948C364.539 103.89 364.656 103.861 364.801 103.802C364.947 103.744 365.122 103.656 365.326 103.569C365.53 103.481 365.734 103.365 365.908 103.277C366.083 103.16 366.229 103.044 366.345 102.927C366.433 102.81 366.491 102.665 366.491 102.577C366.491 102.46 366.491 102.373 366.462 102.315C366.433 102.227 366.433 102.169 366.404 102.14C366.374 102.081 366.316 102.023 366.258 101.994C366.2 101.935 366.112 101.877 365.996 101.819C365.879 101.76 365.704 101.731 365.501 101.731C365.297 101.731 365.064 101.789 364.831 101.848C364.539 101.935 364.248 101.994 363.928 101.994C363.607 101.994 363.287 101.964 362.966 101.877C362.646 101.789 362.326 101.644 362.034 101.381C361.714 101.148 361.452 100.856 361.248 100.477C360.927 99.9809 360.811 99.4559 360.84 98.96C360.898 98.4641 361.102 97.9682 361.481 97.5014L360.578 96.0138C360.549 95.9846 360.549 95.9263 360.549 95.8679C360.549 95.8096 360.578 95.7804 360.636 95.7512L362.559 94.5553C362.588 94.5261 362.646 94.5261 362.704 94.5261C362.762 94.5261 362.792 94.5552 362.821 94.6136L363.607 95.8971C363.957 95.6929 364.306 95.5179 364.656 95.3428C364.685 95.3137 364.743 95.3137 364.801 95.3428C364.86 95.3428 364.889 95.372 364.918 95.4304L365.704 97.0639C365.734 97.1222 365.734 97.1514 365.704 97.2097C365.675 97.2681 365.646 97.2972 365.617 97.2972C365.005 97.5014 364.481 97.7348 364.044 97.9973C363.869 98.114 363.724 98.2307 363.636 98.3474C363.549 98.4641 363.491 98.6099 363.491 98.7266C363.491 98.8433 363.491 98.9308 363.491 98.9891C363.52 99.0475 363.52 99.135 363.549 99.1642C363.578 99.2225 363.636 99.2517 363.695 99.31C363.753 99.3683 363.84 99.4267 363.957 99.4559C364.073 99.5142 364.248 99.5434 364.452 99.5434C364.656 99.5434 364.889 99.485 365.122 99.4267C365.413 99.3392 365.704 99.2808 366.025 99.2808C366.345 99.2808 366.666 99.31 366.986 99.3975C367.307 99.485 367.627 99.66 367.918 99.8934C368.18 100.127 368.443 100.418 368.646 100.769Z" fill="#202D37"/>
<path d="M367.278 107.128C367.219 107.128 367.19 107.128 367.132 107.099C366.986 107.069 366.841 106.953 366.753 106.807L366.171 105.874C365.938 105.99 365.705 106.107 365.472 106.224C365.326 106.282 365.18 106.282 365.035 106.253C364.889 106.194 364.773 106.107 364.685 105.99C364.685 105.99 364.685 105.961 364.656 105.961L363.87 104.327C363.782 104.152 363.782 103.977 363.84 103.832C363.899 103.657 364.044 103.54 364.219 103.482C364.336 103.452 364.481 103.394 364.598 103.336C364.743 103.277 364.889 103.219 365.093 103.102C365.297 103.015 365.472 102.927 365.617 102.811C365.763 102.723 365.879 102.636 365.938 102.548C365.996 102.461 365.996 102.431 365.996 102.431C365.996 102.344 365.996 102.286 365.996 102.286C365.996 102.256 365.967 102.227 365.967 102.227C365.967 102.227 365.967 102.198 365.909 102.169C365.909 102.169 365.85 102.111 365.734 102.052C365.705 102.052 365.646 102.023 365.443 102.023C365.268 102.023 365.093 102.052 364.889 102.14C364.569 102.256 364.219 102.315 363.87 102.315C363.52 102.315 363.17 102.256 362.792 102.169C362.413 102.081 362.034 101.877 361.685 101.615C361.335 101.352 361.044 101.002 360.782 100.594C360.432 100.01 360.258 99.3977 360.316 98.8143C360.374 98.3184 360.549 97.8225 360.869 97.3558L360.112 96.1306C360.025 95.9848 359.995 95.8389 360.025 95.6931C360.054 95.5181 360.17 95.3722 360.316 95.2847L362.238 94.0887C362.384 94.0012 362.559 93.972 362.704 94.0012C362.879 94.0304 362.996 94.1471 363.083 94.2638L363.666 95.1972C363.899 95.0805 364.132 94.9638 364.394 94.8472C364.54 94.7888 364.685 94.7888 364.831 94.818C365.006 94.8763 365.151 94.993 365.21 95.1389L365.996 96.7724C366.083 96.9182 366.083 97.0933 366.025 97.2683C365.967 97.4433 365.821 97.5892 365.646 97.6475C365.093 97.8517 364.598 98.085 364.19 98.3184C364.044 98.4059 363.957 98.4643 363.899 98.5518C363.84 98.6101 363.84 98.6685 363.84 98.6685C363.84 98.7851 363.84 98.8143 363.84 98.8435C363.84 98.8726 363.84 98.8726 363.87 98.9018C363.87 98.9018 363.87 98.931 363.899 98.931C363.899 98.931 363.957 98.9602 364.073 99.0185C364.103 99.0185 364.19 99.0477 364.365 99.0477C364.54 99.0477 364.714 99.0185 364.918 98.931C365.239 98.8435 365.588 98.7851 365.938 98.756C366.287 98.756 366.666 98.7851 367.015 98.9018C367.394 99.0185 367.773 99.1935 368.122 99.4561C368.472 99.7186 368.763 100.069 369.025 100.477C369.404 101.119 369.579 101.731 369.55 102.315C369.521 102.811 369.317 103.307 368.967 103.773L369.695 104.969C369.783 105.115 369.812 105.261 369.783 105.436C369.754 105.611 369.637 105.728 369.521 105.815L367.598 107.011C367.482 107.099 367.394 107.128 367.278 107.128ZM366.316 104.882C366.462 104.882 366.608 104.969 366.695 105.086L367.365 106.165L368.851 105.261L368.093 104.036C368.006 103.861 368.006 103.657 368.152 103.511C368.501 103.102 368.705 102.723 368.734 102.315C368.763 101.906 368.618 101.469 368.326 101.002C368.122 100.681 367.918 100.419 367.656 100.214C367.394 100.01 367.132 99.8644 366.87 99.8061C366.579 99.7186 366.316 99.6894 366.054 99.6894C365.792 99.6894 365.53 99.7478 365.268 99.8061C364.976 99.8936 364.714 99.952 364.452 99.952C364.19 99.952 363.957 99.9228 363.782 99.8353C363.637 99.7478 363.491 99.6894 363.403 99.6019C363.316 99.5144 363.229 99.4269 363.17 99.3394C363.112 99.2519 363.054 99.1352 363.054 99.0185C363.025 98.9018 363.025 98.7851 363.025 98.6393C363.025 98.4351 363.112 98.2309 363.258 98.0267C363.403 97.8517 363.578 97.7058 363.811 97.56C364.19 97.3266 364.656 97.1224 365.18 96.9182L364.627 95.7806C364.365 95.8973 364.073 96.0431 363.811 96.189C363.607 96.3057 363.345 96.2473 363.229 96.0431L362.559 94.9638L361.073 95.8681L361.86 97.1516C361.947 97.2975 361.947 97.5016 361.831 97.6475C361.51 98.0559 361.335 98.4643 361.277 98.8727C361.248 99.281 361.335 99.6894 361.627 100.127C361.831 100.448 362.064 100.71 362.326 100.915C362.588 101.119 362.85 101.265 363.112 101.323C363.403 101.41 363.666 101.44 363.957 101.44C364.219 101.44 364.481 101.41 364.714 101.323C365.006 101.235 365.268 101.177 365.53 101.177C365.792 101.177 366.025 101.206 366.2 101.294C366.346 101.381 366.462 101.44 366.549 101.527C366.637 101.615 366.724 101.702 366.782 101.79C366.841 101.877 366.87 101.994 366.899 102.111C366.928 102.227 366.928 102.344 366.928 102.49C366.928 102.694 366.841 102.898 366.695 103.102C366.549 103.277 366.375 103.423 366.142 103.569C365.967 103.686 365.763 103.773 365.53 103.89C365.297 103.977 365.122 104.065 364.976 104.123C364.918 104.152 364.86 104.152 364.831 104.182L365.384 105.348C365.617 105.232 365.879 105.086 366.142 104.94C366.171 104.911 366.258 104.882 366.316 104.882ZM365.413 96.8307C365.413 96.8599 365.413 96.8599 365.413 96.8307C365.413 96.8599 365.413 96.8599 365.413 96.8307Z" fill="#202D37"/>
<path d="M364.511 115.383C360.054 115.383 354.403 112.35 350.266 99.6023C346.829 88.9551 334.537 66.6399 318.574 65.5023C318.137 65.4731 317.759 65.1522 317.642 64.7147C317.526 64.2771 317.729 63.8396 318.108 63.6062C319.128 62.9645 342.984 48.2043 349.16 46.5708C352.48 45.6957 356.151 47.0667 359.821 50.5379C363.229 53.7758 366.462 58.7056 369.2 64.8022C372.434 72.0364 376.075 79.504 380.764 85.0463C386.619 91.9305 392.503 93.9432 398.824 91.2012C399.174 91.0554 399.611 91.1137 399.902 91.3763C400.193 91.6388 400.31 92.0472 400.193 92.4264C397.077 102.986 371.793 114.45 365.996 115.296C365.472 115.354 365.006 115.383 364.511 115.383ZM321.574 63.8979C329.614 65.6481 336.168 72.0072 340.392 77.3454C346.363 84.8421 350.383 93.4474 352.189 98.9605C355.51 109.228 360.054 114.042 365.647 113.254C370.482 112.554 391.979 102.811 397.281 93.8849C381.813 98.1729 371.735 75.566 367.307 65.6481C362.122 54.0092 355.044 47.1542 349.684 48.5835C344.907 49.8378 327.925 60.0183 321.574 63.8979Z" fill="#202D37"/>
<path d="M344.47 60.7474C344.091 60.7474 343.742 60.5432 343.567 60.1931C343.305 59.6972 343.508 59.0847 344.004 58.8221C344.033 58.793 348.286 56.576 353.674 53.8632C354.17 53.6007 354.781 53.8049 355.044 54.3007C355.306 54.7966 355.102 55.4092 354.607 55.6718C349.247 58.4138 344.994 60.6015 344.965 60.6307C344.79 60.7182 344.615 60.7474 344.47 60.7474Z" fill="#202D37"/>
<path d="M343.654 67.3984C343.334 67.3984 343.043 67.2525 342.839 66.99C342.518 66.5233 342.606 65.8815 343.072 65.5607C344.878 64.248 350.791 61.2143 356.85 58.5306C357.374 58.2973 357.957 58.5306 358.19 59.0557C358.423 59.5808 358.19 60.1642 357.665 60.3975C351.811 62.9937 345.927 65.9691 344.266 67.1942C344.091 67.3109 343.858 67.3984 343.654 67.3984Z" fill="#202D37"/>
<path d="M351.345 73.6694C350.995 73.6694 350.675 73.4944 350.471 73.1735C350.179 72.7068 350.325 72.0651 350.791 71.7734C350.849 71.7442 356.267 68.3896 360.316 66.2602C360.812 65.9976 361.423 66.2018 361.685 66.6977C361.948 67.1936 361.744 67.8062 361.248 68.0687C357.287 70.1398 351.898 73.4652 351.84 73.4944C351.723 73.6111 351.519 73.6694 351.345 73.6694Z" fill="#202D37"/>
<path d="M356.063 81.7792C355.743 81.7792 355.422 81.6334 355.247 81.3708C354.927 80.9041 355.014 80.2623 355.48 79.9415C355.51 79.9123 359.238 77.2286 362.734 75.0117C363.2 74.72 363.84 74.8367 364.132 75.3326C364.423 75.7993 364.307 76.441 363.811 76.7327C360.345 78.9205 356.704 81.575 356.646 81.6042C356.5 81.7209 356.267 81.7792 356.063 81.7792Z" fill="#202D37"/>
<path d="M371.094 234.339C370.54 234.339 370.074 233.902 370.074 233.347C370.074 233.289 370.074 233.143 370.045 232.968C369.434 225.647 370.133 223.838 371.385 223.342C373.016 222.7 378.842 222.554 380.007 222.525C380.007 222.525 380.007 222.525 380.036 222.525C380.59 222.525 381.056 222.963 381.056 223.517C381.056 224.071 380.619 224.538 380.066 224.567C377.619 224.626 373.453 224.83 372.259 225.18C372.084 225.471 371.618 226.872 372.113 232.764C372.143 233.114 372.143 233.202 372.143 233.289C372.113 233.873 371.647 234.339 371.094 234.339Z" fill="#FBD931"/>
<path d="M427.837 233.347C427.808 233.347 427.779 233.347 427.75 233.347C427.196 233.289 426.759 232.793 426.817 232.239C426.992 230.197 427.167 226.609 426.876 225.501C426.293 225.005 423.205 224.567 420.147 224.567C419.593 224.567 419.127 224.1 419.127 223.546C419.127 222.992 419.593 222.525 420.147 222.525C423.788 222.525 428.216 222.934 428.798 224.83C429.323 226.522 428.915 231.451 428.827 232.414C428.798 232.968 428.361 233.347 427.837 233.347Z" fill="#FBD931"/>
<path d="M424.108 273.34C422.535 273.34 421.079 273.136 420.584 273.048C420.03 272.961 419.652 272.436 419.739 271.881C419.826 271.327 420.351 270.948 420.904 271.035C423.934 271.502 426.73 271.269 427.021 270.744C427.167 268.498 427.021 264.297 427.021 264.239C426.992 263.684 427.429 263.189 428.012 263.189C428.565 263.189 429.06 263.597 429.06 264.18C429.06 264.355 429.206 268.527 429.06 270.89C429.031 271.473 428.74 271.998 428.245 272.406C427.342 273.136 425.681 273.34 424.108 273.34Z" fill="#FBD931"/>
<path d="M379.133 273.923C378.085 273.923 374.502 273.865 373.278 273.194C372.841 272.961 371.647 272.319 371.647 264.21C371.647 263.655 372.113 263.189 372.667 263.189C373.22 263.189 373.686 263.655 373.686 264.21C373.686 267.127 373.948 270.627 374.356 271.444C375.055 271.706 377.298 271.852 379.133 271.852C379.687 271.852 380.153 272.319 380.153 272.873C380.153 273.427 379.716 273.923 379.133 273.923Z" fill="#FBD931"/>
<path d="M388.105 247.757C385.629 247.757 382.92 247.699 381.551 247.495C381.056 247.407 380.211 247.291 380.007 246.503C379.483 244.549 379.425 237.781 382.425 233.989C384.348 231.568 388.95 230.985 396.145 232.21C396.32 232.239 396.465 232.268 396.523 232.268C396.902 232.297 397.223 232.501 397.397 232.851C397.514 233.085 397.805 233.639 397.776 239.852C397.747 246.095 397.456 246.532 397.31 246.766C396.989 247.262 396.786 247.612 390.086 247.728C389.474 247.757 388.804 247.757 388.105 247.757ZM381.872 245.482C384.085 245.832 393.203 245.803 395.562 245.453C395.766 243.411 395.795 236.323 395.62 234.222C387.377 232.822 384.814 234.281 384.027 235.273C381.697 238.19 381.58 243.499 381.872 245.482ZM396.465 232.297H396.494H396.465Z" fill="#202D37"/>
<path d="M390.756 243.645H389.037C388.017 243.645 387.173 242.799 387.173 241.778V240.553C387.173 239.532 388.017 238.686 389.037 238.686H390.756C391.775 238.686 392.62 239.532 392.62 240.553V241.778C392.62 242.828 391.775 243.645 390.756 243.645Z" fill="#202D37"/>
<path d="M390.756 244.082H389.037C387.755 244.082 386.736 243.061 386.736 241.778V240.552C386.736 239.269 387.755 238.248 389.037 238.248H390.756C392.037 238.248 393.057 239.269 393.057 240.552V241.778C393.057 243.061 392.008 244.082 390.756 244.082ZM389.037 239.152C388.251 239.152 387.61 239.794 387.61 240.582V241.807C387.61 242.594 388.251 243.236 389.037 243.236H390.756C391.542 243.236 392.183 242.594 392.183 241.807V240.582C392.183 239.794 391.542 239.152 390.756 239.152H389.037Z" fill="#202D37"/>
<path d="M390.756 262.197H389.037C388.017 262.197 387.173 261.351 387.173 260.33V259.105C387.173 258.084 388.017 257.238 389.037 257.238H390.756C391.775 257.238 392.62 258.084 392.62 259.105V260.33C392.62 261.351 391.775 262.197 390.756 262.197Z" fill="#202D37"/>
<path d="M390.756 262.634H389.037C387.755 262.634 386.736 261.613 386.736 260.33V259.105C386.736 257.821 387.755 256.8 389.037 256.8H390.756C392.037 256.8 393.057 257.821 393.057 259.105V260.33C393.057 261.613 392.008 262.634 390.756 262.634ZM389.037 257.675C388.251 257.675 387.61 258.317 387.61 259.105V260.33C387.61 261.117 388.251 261.759 389.037 261.759H390.756C391.542 261.759 392.183 261.117 392.183 260.33V259.105C392.183 258.317 391.542 257.675 390.756 257.675H389.037Z" fill="#202D37"/>
<path d="M410.476 242.74H408.758C407.738 242.74 406.893 241.894 406.893 240.873V239.648C406.893 238.627 407.738 237.781 408.758 237.781H410.476C411.496 237.781 412.34 238.627 412.34 239.648V240.873C412.34 241.894 411.496 242.74 410.476 242.74Z" fill="#202D37"/>
<path d="M410.476 243.178H408.758C407.476 243.178 406.457 242.157 406.457 240.873V239.648C406.457 238.365 407.476 237.344 408.758 237.344H410.476C411.758 237.344 412.778 238.365 412.778 239.648V240.873C412.778 242.128 411.729 243.178 410.476 243.178ZM408.758 238.219C407.971 238.219 407.33 238.86 407.33 239.648V240.873C407.33 241.661 407.971 242.303 408.758 242.303H410.476C411.263 242.303 411.904 241.661 411.904 240.873V239.648C411.904 238.86 411.263 238.219 410.476 238.219H408.758Z" fill="#202D37"/>
<path d="M410.476 262.197H408.758C407.738 262.197 406.893 261.351 406.893 260.33V259.105C406.893 258.084 407.738 257.238 408.758 257.238H410.476C411.496 257.238 412.34 258.084 412.34 259.105V260.33C412.34 261.351 411.496 262.197 410.476 262.197Z" fill="#202D37"/>
<path d="M410.476 262.634H408.758C407.476 262.634 406.457 261.613 406.457 260.33V259.105C406.457 257.821 407.476 256.8 408.758 256.8H410.476C411.758 256.8 412.778 257.821 412.778 259.105V260.33C412.778 261.613 411.729 262.634 410.476 262.634ZM408.758 257.675C407.971 257.675 407.33 258.317 407.33 259.105V260.33C407.33 261.117 407.971 261.759 408.758 261.759H410.476C411.263 261.759 411.904 261.117 411.904 260.33V259.105C411.904 258.317 411.263 257.675 410.476 257.675H408.758Z" fill="#202D37"/>
<path d="M409.632 248.137C407.156 248.137 404.447 248.02 403.165 247.728C402 247.466 401.767 246.824 401.796 246.357C401.796 246.124 401.825 245.395 401.825 244.461C402 232.53 402.262 232.268 402.757 231.83C403.806 230.897 410.564 230.78 414.496 232.735C416.972 233.96 418.05 237.489 418.545 240.261C418.982 242.857 419.069 245.978 418.72 246.795C418.487 247.349 418.225 247.932 411.525 248.078C410.913 248.107 410.272 248.137 409.632 248.137ZM403.806 245.774C406.049 246.211 414.7 246.153 416.826 245.686C416.972 243.703 416.477 236.031 413.564 234.572C410.506 233.056 405.67 233.114 404.243 233.376C403.981 235.185 403.864 242.098 403.835 244.49C403.835 245.015 403.835 245.453 403.806 245.774Z" fill="#202D37"/>
<path d="M393.465 271.123C389.736 271.123 383.211 270.394 381.114 265.551C379.221 261.176 380.182 253.854 380.823 252.891C381.114 252.425 381.434 251.929 386.503 251.783C389.066 251.725 392.096 251.783 394.193 251.958C396.494 252.133 397.193 252.366 397.455 253.037C397.776 253.767 397.688 258.667 397.63 261.526C397.426 269.314 397.047 270.131 396.902 270.394C396.698 270.831 396.348 270.977 396.174 271.006C396.144 271.006 395.067 271.123 393.465 271.123ZM382.512 254.146C382.163 255.575 381.493 261.322 382.978 264.735C384.901 269.168 392.824 269.256 395.154 269.052C395.533 266.601 395.766 256.596 395.591 254.146C393.406 253.767 384.435 253.621 382.512 254.146Z" fill="#202D37"/>
<path d="M402.99 258.259H402.961C402.407 258.23 401.941 257.763 401.97 257.209C402 256.246 402 255.429 402 254.729C402 252.775 402 252.046 402.524 251.52C402.903 251.141 402.99 251.054 412.865 251.229C413.418 251.229 413.884 251.695 413.855 252.279C413.855 252.833 413.389 253.271 412.836 253.271C412.836 253.271 412.836 253.271 412.806 253.271C409.369 253.212 405.524 253.183 404.039 253.212C404.009 253.621 404.009 254.175 404.009 254.729C404.009 255.429 404.01 256.275 403.98 257.267C403.98 257.821 403.543 258.259 402.99 258.259Z" fill="#202D37"/>
<path d="M411.874 270.044C411.466 270.044 411.088 269.81 410.942 269.431C410.709 268.906 410.971 268.323 411.466 268.089C414.321 266.864 417.875 265.347 417.263 251.871C417.234 251.316 417.671 250.821 418.224 250.791C418.778 250.762 419.273 251.2 419.302 251.754C419.943 265.493 416.331 268.206 412.282 269.956C412.136 270.015 412.02 270.044 411.874 270.044Z" fill="#202D37"/>
<path d="M404.942 270.685C403.136 270.685 402.379 270.51 402.058 269.81C401.854 269.373 401.825 268.643 401.796 265.056C401.796 264.297 401.767 263.451 401.767 262.576C401.767 262.022 402.204 261.555 402.757 261.526C403.311 261.526 403.777 261.963 403.806 262.518C403.806 263.393 403.835 264.239 403.835 265.026C403.864 266.427 403.864 267.856 403.922 268.614C404.651 268.673 406.02 268.643 406.69 268.614C407.068 268.614 407.389 268.585 407.622 268.585C408.175 268.585 408.641 269.052 408.641 269.606C408.641 270.16 408.175 270.627 407.622 270.627C407.418 270.627 407.127 270.627 406.748 270.656C406.049 270.685 405.437 270.685 404.942 270.685Z" fill="#202D37"/>
<path d="M223.555 164.506C223.526 164.506 223.497 164.506 223.439 164.506C222.885 164.447 222.478 163.951 222.536 163.397C224.051 148.841 229.439 126.584 230.605 121.83C228.944 121.246 225.187 119.934 221.458 118.387C212.137 114.508 210.972 112.641 211.088 111.212C211.176 110.249 211.292 108.907 229.527 101.819C238.265 98.4059 247.091 95.2847 247.179 95.2555C247.703 95.0805 248.286 95.343 248.49 95.8681C248.664 96.3932 248.402 96.9766 247.878 97.1808C232.119 102.752 215.166 109.491 213.185 111.474C213.448 111.941 214.933 113.487 222.652 116.666C227.371 118.621 232.061 120.167 232.119 120.196C232.614 120.371 232.906 120.896 232.789 121.421C232.731 121.684 226.235 147.47 224.546 163.631C224.517 164.126 224.08 164.506 223.555 164.506Z" fill="#202D37"/>
<path d="M245.082 132.681C244.528 132.681 244.062 132.214 244.062 131.66C244.062 131.106 244.528 130.639 245.082 130.639C250.063 130.639 252.976 128.422 253.238 124.396C253.267 123.842 253.762 123.405 254.316 123.434C254.869 123.463 255.306 123.959 255.277 124.513C254.928 129.618 251.112 132.681 245.082 132.681Z" fill="#202D37"/>
<path d="M256.092 174.395C256.063 174.395 256.005 174.395 255.976 174.395C255.422 174.336 255.015 173.84 255.073 173.257C255.83 166.256 256.908 157.855 258.277 148.287C260.054 135.744 261.685 125.622 261.685 125.505C261.773 125.009 262.209 124.63 262.705 124.659C266.055 124.718 268.967 124.572 271.356 124.193C276.337 123.405 277.968 121.917 278.493 121.101C278.842 120.546 278.93 119.934 278.726 119.292C278.085 117.163 271.036 115.296 261.598 115.908C261.044 115.937 260.549 115.529 260.52 114.946C260.491 114.391 260.899 113.896 261.481 113.866C269.87 113.341 279.454 114.625 280.706 118.709C281.085 119.934 280.91 121.13 280.24 122.209C278.988 124.193 276.133 125.564 271.706 126.235C269.404 126.585 266.695 126.76 263.579 126.73C263.142 129.443 261.773 138.194 260.316 148.608C258.976 158.147 257.898 166.519 257.141 173.49C257.054 174.015 256.617 174.395 256.092 174.395Z" fill="#202D37"/>
<path d="M263.433 121.13C262.938 121.13 262.501 120.75 262.414 120.254C262.326 119.7 262.734 119.175 263.287 119.117C267.395 118.563 271.997 118.767 272.201 118.796C272.754 118.825 273.191 119.292 273.162 119.875C273.133 120.429 272.638 120.867 272.084 120.838C272.026 120.838 267.482 120.605 263.55 121.159C263.521 121.13 263.491 121.13 263.433 121.13Z" fill="#202D37"/>
<path d="M261.889 98.1725C261.889 98.1725 269.084 94.8471 274.443 100.827C280.677 107.857 273.948 115.325 273.803 115.558C269.841 114.77 265.413 114.741 265.413 114.741C265.85 121.859 262.937 122.967 261.685 122.792C260.403 122.617 260.869 120.109 260.869 120.109C243.013 113.924 248.577 98.6975 248.577 98.6975C245.198 100.098 238.906 99.3393 238.76 99.3976C240.799 88.9547 257.286 90.209 261.889 98.1725Z" fill="#202D37"/>
<path d="M261.918 123.842C261.773 123.842 261.656 123.842 261.511 123.813C260.986 123.726 260.549 123.463 260.258 123.055C259.792 122.413 259.734 121.509 259.763 120.838C254.17 118.738 250.296 115.529 248.286 111.27C246.218 106.924 246.626 102.577 247.121 100.215C244.179 100.827 240.567 100.565 239.198 100.477C239.023 100.477 238.877 100.448 238.819 100.448C238.557 100.477 238.295 100.39 238.091 100.215C237.8 99.9811 237.683 99.6019 237.741 99.2519C238.615 94.9055 241.878 91.9302 246.713 91.1134C252.743 90.0924 259.268 92.6011 262.297 96.9474C264.482 96.2474 270.54 94.9347 275.201 100.185C281.202 106.953 276.308 114.1 274.648 116.141L274.589 116.2C274.356 116.521 273.949 116.667 273.57 116.608C270.89 116.083 267.977 115.908 266.433 115.821C266.492 119.146 265.792 121.509 264.336 122.851C263.666 123.463 262.763 123.842 261.918 123.842ZM261.889 121.8C262.064 121.8 262.501 121.771 262.996 121.334C263.637 120.75 264.656 119.117 264.394 114.829C264.365 114.537 264.482 114.275 264.686 114.07C264.889 113.866 265.152 113.75 265.443 113.75C265.618 113.75 269.55 113.808 273.395 114.479C275.23 112.058 278.26 106.661 273.716 101.527C268.938 96.1598 262.413 99.0769 262.355 99.106C261.889 99.3394 261.307 99.1352 261.044 98.6977C258.685 94.643 252.568 92.1927 247.092 93.097C244.965 93.447 241.382 94.6138 240.072 98.4643C242.023 98.581 245.897 98.6977 248.199 97.7642C248.577 97.6184 249.014 97.7059 249.306 97.9684C249.597 98.2601 249.684 98.6685 249.568 99.0477C249.539 99.106 247.529 104.823 250.179 110.395C252.044 114.304 255.772 117.25 261.248 119.146C261.714 119.321 262.006 119.788 261.918 120.313C261.773 120.867 261.773 121.538 261.889 121.8Z" fill="#202D37"/>
<path d="M273.803 147.237C269.317 150.212 263.695 151.35 259.297 148.433C261.103 135.744 262.705 125.68 262.705 125.68C266.288 125.738 269.201 125.563 271.531 125.184C268.851 133.323 269.259 140.44 271.822 140.819C274.648 141.257 275.726 140.323 277.095 139.332C278.464 138.398 279.512 143.415 273.803 147.237Z" fill="#202D37"/>
<path d="M265.123 151.175C262.822 151.175 260.637 150.562 258.744 149.308C258.423 149.104 258.249 148.695 258.307 148.316C260.084 135.773 261.715 125.651 261.715 125.534C261.802 125.038 262.239 124.659 262.734 124.688C266.084 124.746 268.997 124.601 271.386 124.221C271.735 124.163 272.085 124.309 272.318 124.571C272.551 124.834 272.609 125.213 272.522 125.563C270.366 132.127 270.366 137.611 271.473 139.419C271.648 139.682 271.823 139.857 271.997 139.886C274.211 140.236 275.085 139.623 276.25 138.777L276.541 138.573C277.037 138.223 277.59 138.165 278.114 138.398C278.755 138.69 279.163 139.448 279.25 140.44C279.396 142.394 278.202 145.603 274.415 148.141C271.298 150.154 268.094 151.175 265.123 151.175ZM260.404 147.937C263.987 149.979 268.735 149.424 273.25 146.42C276.25 144.436 276.949 142.278 277.095 141.461C277.153 141.111 277.182 140.819 277.153 140.615C275.901 141.519 274.532 142.336 271.648 141.899C271.094 141.811 270.337 141.49 269.696 140.498C268.181 138.048 268.356 132.418 270.075 126.467C268.152 126.672 265.968 126.788 263.55 126.759C263.142 129.385 261.831 137.815 260.404 147.937Z" fill="#202D37"/>
<path d="M30.5183 72.6485C27.1393 72.6485 23.4108 72.4443 19.5075 72.211C16.8568 72.0651 14.0896 71.9193 11.3806 71.8318C10.8271 71.8026 10.3902 71.3359 10.3902 70.7816C10.4193 70.2274 10.8854 69.7607 11.4388 69.7898C14.1769 69.8774 16.9442 70.0232 19.5949 70.1982C31.13 70.84 42.0533 71.4525 43.1602 66.3186C43.3059 65.6477 43.4807 64.8017 43.6846 63.8391C47.0053 48.0872 50.6755 31.6352 52.6563 28.864C55.8604 24.3426 69.7841 28.0472 71.357 28.4848C71.9105 28.6306 72.2309 29.1849 72.0561 29.7391C71.9105 30.2933 71.357 30.6142 70.8036 30.4392C65.3856 28.9515 56.0935 27.493 54.2875 30.06C52.3067 32.8603 47.4713 55.6714 45.6653 64.2767C45.4614 65.2393 45.2866 66.0852 45.141 66.7561C44.1506 71.5109 38.354 72.6485 30.5183 72.6485Z" fill="#202D37"/>
<path d="M20.7797 77.8153C22.4062 76.1861 22.4062 73.5447 20.7797 71.9155C19.1532 70.2863 16.5162 70.2863 14.8897 71.9155C13.2632 73.5447 13.2632 76.1861 14.8897 77.8153C16.5162 79.4445 19.1532 79.4445 20.7797 77.8153Z" fill="#202D37"/>
<path d="M17.8477 79.5043C15.3135 79.5043 13.2453 77.4333 13.2453 74.8955C13.2453 72.3576 15.3135 70.2866 17.8477 70.2866C20.3819 70.2866 22.4501 72.3576 22.4501 74.8955C22.4501 77.4333 20.3819 79.5043 17.8477 79.5043ZM17.8477 71.1325C15.7795 71.1325 14.1192 72.8244 14.1192 74.8663C14.1192 76.9374 15.8087 78.6001 17.8477 78.6001C19.9158 78.6001 21.5762 76.9082 21.5762 74.8663C21.5762 72.8244 19.9158 71.1325 17.8477 71.1325Z" fill="#202D37"/>
<path d="M36.0525 79.4455C38.353 79.4455 40.2179 77.5779 40.2179 75.2741C40.2179 72.9704 38.353 71.1028 36.0525 71.1028C33.752 71.1028 31.8871 72.9704 31.8871 75.2741C31.8871 77.5779 33.752 79.4455 36.0525 79.4455Z" fill="#202D37"/>
<path d="M36.0526 79.8828C33.5184 79.8828 31.4502 77.8117 31.4502 75.2739C31.4502 72.7361 33.5184 70.665 36.0526 70.665C38.5868 70.665 40.655 72.7361 40.655 75.2739C40.655 77.8117 38.5868 79.8828 36.0526 79.8828ZM36.0526 71.5109C33.9844 71.5109 32.3241 73.2028 32.3241 75.2447C32.3241 77.3158 34.0136 78.9785 36.0526 78.9785C38.0916 78.9785 39.7811 77.2867 39.7811 75.2447C39.7811 73.2028 38.0916 71.5109 36.0526 71.5109Z" fill="#202D37"/>
<path d="M10.594 60.193C10.2154 60.193 9.83668 60.193 9.48713 60.193C8.93368 60.193 8.46762 59.7263 8.46762 59.1721C8.46762 58.6178 8.93368 58.1511 9.48713 58.1511C18.8084 58.2094 45.5779 57.5385 45.84 57.5094C46.3935 57.5094 46.8596 57.9469 46.8887 58.5011C46.8887 59.0554 46.4517 59.5221 45.8983 59.5513C45.6361 59.5804 20.7892 60.193 10.594 60.193Z" fill="#202D37"/>
<path d="M50.7334 38.5776C49.0148 38.5776 8.93342 38.2859 1.27252 37.5566C0.719066 37.4983 0.311267 37.0024 0.340396 36.4481C0.398654 35.8939 0.893842 35.4855 1.44729 35.5147C8.99168 36.2439 50.2965 36.5356 50.7334 36.5356C51.2869 36.5356 51.753 37.0024 51.753 37.5566C51.753 38.1108 51.316 38.5776 50.7334 38.5776Z" fill="#202D37"/>
<path d="M11.5265 59.8719C11.2352 59.8719 10.9148 59.7261 10.74 59.4927C8.43884 56.6048 2.84608 43.945 2.84608 36.7107C2.84608 36.1565 3.31215 35.6898 3.8656 35.6898C4.41905 35.6898 4.88511 36.1565 4.88511 36.7107C4.88511 43.3032 10.3031 55.6422 12.3421 58.2384C12.6917 58.6759 12.6043 59.3177 12.1673 59.6677C11.9926 59.8136 11.7595 59.8719 11.5265 59.8719Z" fill="#202D37"/>
<path d="M27.4889 48.9625C21.3135 48.9625 14.1478 48.9625 6.51602 48.9625C5.96257 48.9625 5.49651 48.4958 5.49651 47.9415C5.49651 47.3873 5.96257 46.9206 6.51602 46.9206C29.2657 46.9497 48.0247 46.9206 48.2286 46.9206C48.7821 46.9206 49.2482 47.3873 49.2482 47.9415C49.2482 48.4958 48.7821 48.9625 48.2286 48.9625C48.083 48.9625 39.7521 48.9625 27.4889 48.9625Z" fill="#202D37"/>
<path d="M20.4099 59.8722C19.9439 59.8722 19.5071 59.5221 19.4197 59.0554C18.051 51.7628 18.7791 37.732 18.8082 37.1194C18.8373 36.5652 19.3032 36.1276 19.8857 36.1568C20.439 36.1859 20.8758 36.6818 20.8467 37.2361C20.8467 37.3819 20.0895 51.617 21.4291 58.6762C21.5456 59.2304 21.167 59.7555 20.6137 59.8722C20.5264 59.8722 20.4681 59.8722 20.4099 59.8722Z" fill="#202D37"/>
<path d="M35.1203 59.5512C34.5961 59.5512 34.1301 59.1428 34.101 58.6178C34.101 58.5303 33.4021 48.6124 34.6835 37.2943C34.7417 36.7401 35.2659 36.3317 35.8192 36.3901C36.3725 36.4484 36.7802 36.9735 36.722 37.5277C35.4406 48.6416 36.1395 58.3844 36.1395 58.4719C36.1687 59.0262 35.761 59.5221 35.2077 59.5512C35.1785 59.5512 35.1494 59.5512 35.1203 59.5512Z" fill="#202D37"/>
<path d="M281.609 312.69C280.998 312.69 280.415 312.632 279.891 312.545C279.337 312.457 278.959 311.932 279.046 311.378C279.133 310.824 279.658 310.444 280.211 310.532C283.794 311.086 291.542 309.803 303.456 294.722C326.002 266.193 332.498 249.916 328.216 232.501C323.613 213.774 302.145 201.114 295.679 197.672C292.271 195.864 285.221 191.576 277.735 186.996C268.764 181.541 257.636 174.774 256.034 174.365C255.714 174.394 255.073 174.657 254.374 174.978C251.607 176.174 246.422 178.42 237.13 176.115C228.303 173.957 226.09 169.581 224.633 166.664C224.08 165.556 223.643 164.71 223.031 164.331C220.584 162.843 197.194 160.889 191.63 160.772H191.048C181.901 160.597 173.308 159.897 172.376 155.988C171.881 153.858 170.628 151.992 164.948 152.867C162.647 153.217 161.103 152.954 160.083 152.021C158.918 150.941 158.86 149.22 158.977 147.674C159.035 147.033 159.18 145.049 155.918 144.757L155.743 144.728C152.539 144.466 151.578 143.299 151.403 136.269C151.257 130.931 138.761 119.204 132.761 113.574C130.867 111.795 129.498 110.512 128.886 109.811C127.051 107.682 117.934 105.261 112.458 104.532C111.904 104.444 111.496 103.948 111.584 103.394C111.671 102.84 112.166 102.431 112.72 102.519C117.147 103.102 127.779 105.436 130.43 108.499C130.955 109.111 132.382 110.453 134.159 112.116C143.393 120.779 153.296 130.522 153.442 136.24C153.529 139.448 153.792 141.315 154.258 142.103C154.52 142.54 154.782 142.628 155.918 142.715L156.093 142.745C159.384 143.036 161.22 144.932 161.016 147.849C160.899 149.337 161.045 150.154 161.482 150.533C161.977 151 163.055 151.087 164.657 150.854C166.725 150.533 172.988 149.6 174.386 155.521C174.473 155.93 175.231 157.271 180.794 158.059C184.406 158.584 188.601 158.672 191.135 158.701H191.717C195.213 158.759 220.817 160.538 224.138 162.551C225.245 163.222 225.827 164.36 226.497 165.702C227.867 168.414 229.76 172.148 237.654 174.073C246.305 176.203 250.878 174.219 253.616 173.023C254.665 172.586 255.422 172.236 256.151 172.265C257.432 172.294 262.646 175.357 278.842 185.187C286.299 189.738 293.348 194.026 296.698 195.805C303.369 199.335 325.448 212.403 330.255 231.947C334.711 250.062 328.128 266.806 305.116 295.918C294.426 309.453 286.649 312.69 281.609 312.69Z" fill="#202D37"/>
<path d="M263.783 290.463C263.346 290.463 262.938 290.171 262.793 289.734C260.783 282.674 261.22 281.041 263.084 277.745C263.812 276.49 266.375 273.427 269.667 269.519C275.202 262.926 283.561 253.008 284.639 249.362C286.212 244.053 284.086 236.469 258.278 217.158C257.841 216.808 257.724 216.195 258.074 215.729C258.423 215.291 259.035 215.174 259.501 215.524C284.814 234.456 288.63 242.974 286.591 249.916C285.397 253.942 277.561 263.305 271.24 270.802C268.152 274.477 265.502 277.628 264.89 278.707C263.288 281.507 262.938 282.587 264.802 289.121C264.948 289.675 264.657 290.229 264.103 290.375C263.958 290.463 263.87 290.463 263.783 290.463Z" fill="#202D37"/>
<path d="M186.969 210.653C186.94 210.653 186.882 210.653 186.853 210.653C181.93 210.04 138.295 204.148 123.498 191.225C106.981 176.786 90.3197 135.423 90.174 135.014C88.5428 130.843 88.3389 127.43 89.3584 121.013C89.4458 120.458 89.9701 120.079 90.5236 120.167C91.077 120.254 91.4557 120.779 91.3683 121.333C90.4071 127.401 90.5527 130.435 92.0674 134.285C92.2131 134.693 108.671 175.561 124.837 189.708C139.169 202.252 182.251 208.027 187.115 208.64C187.669 208.698 188.076 209.223 187.989 209.778C187.931 210.274 187.465 210.653 186.969 210.653Z" fill="#202D37"/>
<path d="M175.959 231.014C175.784 231.014 175.58 230.955 175.434 230.868C174.968 230.576 174.793 229.935 175.085 229.468C177.299 225.851 188.397 207.269 191.135 195.689C191.251 195.134 191.805 194.784 192.358 194.93C192.912 195.047 193.232 195.601 193.116 196.155C190.319 208.057 179.046 226.901 176.832 230.547C176.629 230.839 176.279 231.014 175.959 231.014Z" fill="#202D37"/>
<path d="M273.745 317.358C273.075 317.358 271.676 317.358 264.103 308.228C261.714 305.34 256.937 299.301 256.704 298.397C255.888 295.276 261.394 290.171 263.112 288.684C263.345 288.479 263.637 288.392 263.928 288.45C264.219 288.479 264.482 288.654 264.627 288.888C268.239 294.372 278.172 309.015 280.648 310.853C280.881 311.028 281.027 311.261 281.056 311.553C281.085 311.845 280.998 312.107 280.823 312.311C280.124 313.157 276.512 317.358 273.745 317.358ZM258.656 297.785C259.064 298.514 262.093 302.569 265.647 306.886C271.851 314.383 273.511 315.228 273.774 315.316C274.968 315.258 277.094 313.391 278.609 311.757C274.997 308.023 266.229 295.013 263.579 291.017C260.899 293.497 258.481 296.589 258.656 297.785Z" fill="#202D37"/>
<path d="M238.732 340.461C237.974 340.461 237.363 340.227 236.955 339.761C236.372 339.119 236.256 338.185 236.664 336.931C235.149 337.806 233.576 338.419 232.556 338.04C231.945 337.806 231.566 337.31 231.42 336.61C230.983 334.102 233.459 331.33 236.11 328.413C237.829 326.488 239.606 324.505 240.217 322.929C241.149 320.421 241.382 318.554 241.382 317.62C241.324 317.65 241.266 317.679 241.208 317.679C237.566 319.079 233.518 320.508 231.449 319.458C230.838 319.137 230.43 318.641 230.255 318C229.614 315.608 233.955 312.749 243.043 306.973C247.878 303.91 253.384 300.439 257.083 297.318C257.52 296.968 258.161 296.997 258.51 297.435C258.86 297.872 258.831 298.514 258.394 298.864C254.578 302.073 249.014 305.602 244.121 308.694C240.916 310.736 237.887 312.632 235.644 314.266C232.644 316.454 232.265 317.27 232.236 317.475C232.265 317.533 232.294 317.562 232.382 317.62C233.838 318.35 238.848 316.395 240.509 315.754C241.441 315.404 241.703 315.287 241.936 315.287C242.344 315.258 242.751 315.433 243.014 315.783C243.946 317.008 243.218 320.712 242.14 323.63C241.412 325.584 239.489 327.713 237.654 329.755C235.615 332.001 233.343 334.568 233.43 336.114C234.275 336.027 236.722 334.627 238.79 332.964C239.169 332.643 239.751 332.672 240.101 332.993C240.479 333.343 240.538 333.897 240.275 334.306C238.382 337.223 238.47 338.185 238.499 338.36C238.703 338.419 239.606 338.448 241.47 337.515C241.878 337.31 242.402 337.398 242.693 337.748C242.839 337.923 243.101 338.156 243.684 338.185C246.218 338.273 251.257 334.218 253.82 331.651C254.199 331.272 254.782 331.243 255.189 331.564C255.597 331.885 255.685 332.468 255.393 332.906C254.607 334.16 253.529 336.406 253.733 337.31V337.34C254.665 337.019 257.491 334.831 262.093 329.814C266.492 325.001 270.54 319.721 272.9 315.754C273.191 315.258 273.803 315.112 274.298 315.404C274.793 315.695 274.939 316.308 274.648 316.804C272.113 321.063 267.657 326.838 262.967 331.885C254.956 340.519 253.442 339.644 252.801 339.265C252.277 338.944 251.898 338.448 251.752 337.835C251.636 337.34 251.665 336.814 251.752 336.231C249.305 338.185 246.072 340.315 243.596 340.257C242.897 340.227 242.285 340.023 241.761 339.673C240.567 340.198 239.547 340.461 238.732 340.461Z" fill="#202D37"/>
<path d="M239.402 334.801C239.111 334.801 238.819 334.685 238.615 334.451C238.237 334.014 238.295 333.372 238.732 333.022C242.868 329.463 247.121 324.679 247.849 323.308C248.111 322.812 248.723 322.608 249.218 322.9C249.713 323.162 249.917 323.775 249.626 324.271C248.694 325.992 244.208 330.98 240.014 334.568C239.868 334.743 239.635 334.801 239.402 334.801Z" fill="#202D37"/>
<path d="M241.907 339.498C241.586 339.498 241.266 339.352 241.062 339.06C240.741 338.593 240.858 337.952 241.324 337.631C246.713 333.926 252.189 327.013 252.247 326.955C252.597 326.517 253.238 326.429 253.675 326.78C254.112 327.13 254.199 327.771 253.849 328.209C253.616 328.501 248.111 335.443 242.489 339.294C242.314 339.439 242.11 339.498 241.907 339.498Z" fill="#202D37"/>
<path d="M254.491 333.43C254.258 333.43 254.025 333.343 253.821 333.168C253.384 332.789 253.355 332.147 253.733 331.738C254.345 331.009 255.044 330.163 255.365 329.726C255.569 329.463 256.209 328.646 256.996 329.23C257.316 329.463 257.637 330.047 257.2 330.688C257.171 330.747 257.112 330.805 257.054 330.834C257.025 330.863 256.996 330.893 256.967 330.951C256.617 331.388 255.947 332.293 255.277 333.051C255.073 333.314 254.782 333.43 254.491 333.43Z" fill="#202D37"/>
<path d="M139.373 291.046C138.848 291.046 138.411 290.638 138.353 290.113C138.149 287.779 137.159 275.294 136.314 259.747C135.819 250.383 135.644 243.907 137.945 239.152C140.451 233.931 145.781 231.306 155.219 230.664C162.589 230.139 176.687 228.914 193.028 227.484C217.963 225.297 248.985 222.555 266.754 221.504C267.307 221.475 267.802 221.913 267.831 222.467C267.86 223.021 267.424 223.517 266.87 223.546C249.131 224.597 218.137 227.309 193.203 229.526C176.862 230.956 162.763 232.21 155.365 232.706C146.742 233.318 141.965 235.565 139.81 240.057C137.742 244.345 137.916 250.616 138.382 259.63C139.227 275.149 140.217 287.604 140.392 289.938C140.451 290.492 140.014 290.988 139.46 291.046C139.431 291.046 139.402 291.046 139.373 291.046Z" fill="#202D37"/>
<path d="M141.499 333.197C137.188 333.197 134.625 332.147 133.518 330.047C129.644 322.521 130.226 301.46 131.683 294.868C133.227 287.867 138.732 288.8 142.752 289.471C143.072 289.529 143.364 289.588 143.684 289.617C147.646 290.259 166.23 286.992 173.308 285.212C177.444 284.162 181.086 283.433 183.62 285.154C185.367 286.321 186.387 288.479 186.882 291.921C187.64 297.434 188.339 306.331 188.892 317.591C189.154 323.221 185.688 324.388 175.638 326.313C173.221 326.78 169.958 327.626 166.201 328.617C159.938 330.251 152.83 332.089 146.801 332.905C144.762 333.081 143.014 333.197 141.499 333.197ZM133.664 295.276C132.149 302.16 131.974 322.579 135.324 329.084C136.023 330.426 138.528 331.826 146.48 330.776C152.394 329.988 159.443 328.18 165.647 326.546C169.463 325.555 172.755 324.709 175.231 324.213C185.95 322.171 186.999 321.15 186.824 317.62C186.27 306.419 185.601 297.609 184.843 292.125C184.464 289.354 183.678 287.604 182.484 286.787C180.823 285.65 178.144 286.029 173.803 287.137C167.278 288.8 147.879 292.301 143.364 291.6C143.043 291.542 142.723 291.484 142.431 291.455C137.654 290.667 134.712 290.521 133.664 295.276Z" fill="#202D37"/>
<path d="M171.327 371.527C149.073 371.527 144.937 365.08 144.121 359.567C143.393 354.754 142.024 343.553 141.383 332.234C141.354 331.68 141.791 331.184 142.344 331.155C142.898 331.126 143.393 331.564 143.422 332.118C144.063 343.348 145.432 354.462 146.16 359.246C146.568 362.017 147.937 365.489 155.015 367.618C163.841 370.272 179.221 370.068 200.718 366.947C222.303 363.826 250.354 359.334 275.143 355.366C301.272 351.195 323.817 347.578 331.595 346.732C346.014 345.157 354.111 343.378 352.626 325C351.169 307.119 344.965 242.857 343.101 229.176C341.353 216.429 336.867 215.262 319.943 216.195C319.39 216.224 318.895 215.787 318.865 215.233C318.836 214.678 319.273 214.183 319.827 214.153C328.798 213.657 334.391 213.774 338.236 215.758C342.081 217.77 344.091 221.563 345.081 228.884C346.975 242.594 353.179 306.915 354.636 324.825C356.238 344.661 347.091 347.111 331.799 348.774C324.079 349.62 301.534 353.237 275.434 357.408C250.675 361.376 222.594 365.868 200.981 368.989C188.601 370.768 178.93 371.527 171.327 371.527Z" fill="#202D37"/>
<path d="M171.065 314.907C166.871 314.907 163.462 311.494 163.462 307.294C163.462 303.093 166.871 299.681 171.065 299.681C175.26 299.681 178.668 303.093 178.668 307.294C178.668 311.494 175.26 314.907 171.065 314.907ZM171.065 301.722C168.007 301.722 165.502 304.231 165.502 307.294C165.502 310.357 168.007 312.866 171.065 312.866C174.124 312.866 176.629 310.357 176.629 307.294C176.629 304.231 174.124 301.722 171.065 301.722Z" fill="#202D37"/>
<path d="M245.082 298.222C240.887 298.222 237.479 294.809 237.479 290.609C237.479 286.408 240.887 282.995 245.082 282.995C249.276 282.995 252.684 286.408 252.684 290.609C252.684 294.809 249.276 298.222 245.082 298.222ZM245.082 285.037C242.023 285.037 239.518 287.546 239.518 290.609C239.518 293.671 242.023 296.18 245.082 296.18C248.14 296.18 250.645 293.671 250.645 290.609C250.645 287.546 248.14 285.037 245.082 285.037Z" fill="#202D37"/>
<path d="M234.217 283.754C234.1 283.754 233.955 283.724 233.838 283.666C233.314 283.462 233.052 282.849 233.285 282.324C234.45 279.436 237.683 277.19 241.936 276.286C246.043 275.411 251.752 275.761 255.481 279.349C255.889 279.728 255.889 280.399 255.51 280.778C255.131 281.187 254.461 281.187 254.083 280.807C251.49 278.299 246.888 277.307 242.373 278.27C238.79 279.028 236.11 280.837 235.178 283.083C235.003 283.52 234.625 283.754 234.217 283.754Z" fill="#202D37"/>
<path d="M231.158 275.236C231.042 275.236 230.925 275.207 230.809 275.178C230.284 274.973 230.022 274.39 230.197 273.865C231.624 270.073 235.615 267.156 240.887 266.047C246.975 264.793 252.976 266.339 256.559 270.073C256.937 270.481 256.937 271.123 256.529 271.502C256.122 271.881 255.481 271.881 255.102 271.473C251.403 267.622 245.548 267.156 241.324 268.031C236.809 268.964 233.285 271.473 232.119 274.536C231.974 274.973 231.595 275.236 231.158 275.236Z" fill="#202D37"/>
<path d="M224.896 268.089C224.75 268.089 224.604 268.06 224.488 268.002C223.964 267.768 223.731 267.156 223.964 266.66C225.77 262.576 230.605 259.397 237.188 257.938C245.839 256.042 254.782 257.734 259.938 262.284C260.375 262.664 260.404 263.305 260.025 263.714C259.647 264.151 259.006 264.18 258.598 263.801C253.908 259.688 245.665 258.142 237.625 259.922C231.77 261.205 227.343 264.035 225.828 267.477C225.653 267.856 225.274 268.089 224.896 268.089Z" fill="#202D37"/>
<path d="M90.1744 122.53C89.9413 122.53 89.6792 122.471 89.417 122.296C87.7858 121.392 82.5717 114.45 83.5912 111.299C85.2516 106.107 100.107 96.5974 108.03 95.664C108.7 95.5765 109.749 95.8682 111.642 98.756C112.575 100.156 113.565 101.994 113.711 103.015C113.885 104.065 113.215 104.503 112.778 104.59C110.739 105.028 94.3107 118.3 91.0774 122.121C90.8735 122.355 90.553 122.53 90.1744 122.53ZM108.118 97.735C100.486 98.7268 86.8245 107.857 85.5137 111.97C84.9894 113.633 88.4558 118.913 90.0287 120.284C93.5533 116.608 107.302 105.028 111.584 102.927C111.06 101.469 108.992 98.2018 108.118 97.735Z" fill="#202D37"/>
<path d="M82.8048 104.852C82.63 104.852 82.4552 104.794 82.2805 104.706C79.455 103.073 77.7364 99.2516 77.882 94.9636C77.9694 92.5717 78.6102 90.5006 79.7462 88.9254C75.3769 89.2171 68.4734 89.1296 67.5121 85.5416C66.2596 80.8744 74.6487 78.5699 82.7757 76.3238C83.3 76.178 83.8243 76.0321 84.3195 75.8863C82.5135 69.7605 80.0958 63.0805 79.018 62.3221C78.6393 62.0304 77.9985 61.6804 77.2703 61.2428C74.1826 59.3759 68.9977 56.2839 68.3568 52.2001C67.949 49.5456 68.6773 47.3286 70.3085 46.2493C71.5902 45.4325 73.1922 45.4617 74.5322 46.3368C75.2021 46.7744 76.8334 47.7078 78.7559 48.8163C86.7081 53.396 90.6113 55.7588 91.3396 56.9256C92.3591 58.5592 105.642 92.7467 107.127 96.6555C107.331 97.1805 107.069 97.7639 106.545 97.9681C106.021 98.1723 105.438 97.9098 105.234 97.3847C99.3791 82.2746 90.3783 59.2884 89.621 58.0049C88.8927 57.0131 81.3775 52.6668 77.7655 50.5957C75.7556 49.4289 74.1535 48.5246 73.4253 48.0579C72.7553 47.6203 71.998 47.5912 71.4154 47.9704C70.4833 48.5829 70.0754 50.0415 70.3667 51.8792C70.8619 55.0296 75.5226 57.8299 78.3189 59.4926C79.0763 59.9593 79.7463 60.3385 80.2123 60.6886C82.4261 62.2929 85.6303 73.0859 86.5624 76.353C86.6498 76.6155 86.5916 76.9072 86.475 77.1406C86.3294 77.374 86.1255 77.549 85.8633 77.6365C85.0477 77.8699 84.203 78.1032 83.3 78.3366C77.5033 79.9409 68.7355 82.3329 69.4637 85.0457C70.0463 87.2627 77.6781 87.2918 82.63 86.6209C83.1252 86.5626 83.5913 86.8543 83.7369 87.321C83.8826 87.7877 83.6495 88.3128 83.2126 88.5462C81.261 89.5088 80.0084 91.9591 79.8919 95.0511C79.7754 98.5224 81.1153 101.702 83.2709 102.956C83.7661 103.248 83.9117 103.861 83.6495 104.356C83.5039 104.677 83.1543 104.852 82.8048 104.852Z" fill="#202D37"/>
<path d="M84.5525 112.641C84.4942 112.641 84.4359 112.641 84.3777 112.612C82.1639 112.233 77.8528 109.812 74.2699 106.107C71.0949 102.811 67.3081 97.3269 67.3955 89.9468C67.3955 89.3926 67.8616 88.9259 68.415 88.9259C68.9685 88.9259 69.4346 89.3926 69.4346 89.9468C69.3472 96.6268 72.8135 101.644 75.7264 104.678C79.2219 108.295 83.0669 110.308 84.6981 110.599C85.2516 110.687 85.6302 111.212 85.5428 111.766C85.4555 112.291 85.0185 112.641 84.5525 112.641Z" fill="#202D37"/>
<path d="M76.6582 80.2329C76.2795 80.2329 75.9299 80.0287 75.726 79.6495C73.5414 75.1573 72.1723 69.3524 74.7939 66.4646C75.9299 65.2394 78.202 64.1601 82.7753 65.9395C83.2996 66.1437 83.5617 66.7271 83.3578 67.2522C83.1539 67.7772 82.5714 68.0398 82.047 67.8356C80.1245 67.0771 77.5612 66.4646 76.3086 67.8356C74.7648 69.5274 75.26 74.0197 77.5612 78.7452C77.7942 79.2411 77.5903 79.8537 77.0951 80.1162C76.9495 80.2037 76.8038 80.2329 76.6582 80.2329Z" fill="#202D37"/>
<path d="M70.4246 82.9457C70.1042 82.9457 69.7547 82.7707 69.5799 82.479C67.2496 78.9202 65.8514 73.5529 67.8904 70.6359C68.7352 69.4107 70.512 68.1564 74.2114 69.0315C74.7649 69.1482 75.0853 69.7024 74.9688 70.2566C74.8523 70.8109 74.2988 71.1318 73.7454 71.0151C71.6772 70.5192 70.279 70.7817 69.5508 71.8027C68.1526 73.8154 69.3178 78.366 71.2694 81.3413C71.5898 81.8081 71.4442 82.4498 70.9781 82.7415C70.8325 82.8874 70.6285 82.9457 70.4246 82.9457Z" fill="#202D37"/>
<path d="M71.7359 91.901C69.8716 91.901 67.5413 90.9676 65.0071 89.1299C61.4242 86.5337 59.6765 81.3998 61.2786 78.1327C61.832 77.0242 63.5798 74.6031 68.1821 75.9741C68.7356 76.12 69.0269 76.7034 68.8812 77.2576C68.7065 77.8118 68.153 78.1035 67.5996 77.9577C66.0266 77.4909 63.9584 77.2868 63.0846 79.0661C62.0359 81.1956 63.172 85.3377 66.1723 87.4963C69.5512 89.9466 71.8524 90.18 72.7845 89.6258C73.2506 89.3632 73.4545 88.809 73.3671 88.0506C73.3088 87.4963 73.7166 87.0004 74.2701 86.9421C74.8235 86.8838 75.3187 87.2921 75.377 87.8464C75.5226 89.4216 74.9401 90.7051 73.7749 91.4051C73.2506 91.726 72.5515 91.901 71.7359 91.901Z" fill="#202D37"/>
<path d="M13.0115 241.019C6.74879 241.019 5.49624 239.123 4.59324 235.564C3.45721 231.043 2.6416 225.442 1.1269 211.586C1.09777 211.236 1.06864 210.916 1.01039 210.595L0.835611 209.107C0.486063 205.869 0.194776 203.331 0.136518 201.289C-0.0382556 195.368 1.73861 193.355 8.03046 192.363C25.9448 189.534 50.0926 187.375 59.21 186.558C60.113 186.471 60.8703 186.412 61.4529 186.354C66.5214 185.887 69.3177 187.638 70.8616 192.217C71.5315 194.201 71.9685 196.797 72.2598 200.21L72.2889 200.502C72.3472 201.056 71.9102 201.552 71.3568 201.61C70.8033 201.669 70.3081 201.231 70.2499 200.677L70.2207 200.385C69.9586 197.147 69.5216 194.697 68.9099 192.888C67.6574 189.213 65.764 188.046 61.5986 188.396C61.016 188.454 60.2878 188.513 59.3556 188.6C50.2674 189.417 26.1487 191.546 8.32175 194.376C3.02028 195.222 2.00077 196.36 2.14641 201.231C2.20467 203.185 2.49596 205.723 2.84551 208.903L3.02028 210.39C3.04941 210.711 3.10767 211.061 3.13679 211.382C4.62237 225.121 5.43798 230.664 6.54488 235.068C7.44788 238.598 7.94307 240.552 27.1973 237.402C27.7507 237.315 28.2751 237.694 28.3625 238.248C28.4498 238.802 28.0712 239.327 27.5177 239.415C20.9054 240.494 16.274 241.019 13.0115 241.019Z" fill="#202D37"/>
<path d="M71.2402 200.268C59.8507 201.814 23.5561 206.715 1.94243 209.778C1.53462 206.19 1.2142 203.419 1.15594 201.231C16.7691 199.451 57.1126 194.201 69.9002 192.538C70.5411 194.463 70.978 196.972 71.2402 200.268Z" fill="#202D37"/>
<path d="M1.94278 210.215C1.85539 210.215 1.73887 210.186 1.68061 210.128C1.59322 210.07 1.53497 209.953 1.50585 209.836L1.41845 209.049C1.06891 205.84 0.777618 203.273 0.71936 201.26C0.71936 201.027 0.89413 200.852 1.09803 200.823C17.3811 198.956 61.2202 193.238 69.8132 192.13C70.0171 192.101 70.221 192.217 70.2793 192.422C70.9201 194.347 71.3862 196.914 71.6483 200.268C71.6775 200.502 71.5027 200.706 71.2696 200.735L71.0075 200.764C59.2394 202.369 23.4108 207.211 1.9719 210.245C2.00103 210.215 1.97191 210.215 1.94278 210.215ZM1.62236 201.639C1.70975 203.565 1.9719 205.957 2.32145 208.961L2.35058 209.311C23.7604 206.307 58.919 201.523 70.7745 199.918C70.5123 197.03 70.1336 194.784 69.5802 193.034C60.2589 194.23 17.9928 199.743 1.62236 201.639Z" fill="#202D37"/>
<path d="M12.4583 222.175C11.6427 222.175 10.9727 222.117 10.4775 222.029C10.1571 221.971 9.19585 221.738 8.87543 220.892C8.58414 220.075 8.11808 218.441 7.82679 216.983C7.30247 214.358 7.50637 213.482 7.97243 212.987C9.34149 211.528 17.6141 210.595 20.6144 210.857C21.8669 210.974 22.5369 211.236 22.8865 211.791C23.7603 213.103 25.1876 218.296 23.4982 220.046C22.3621 221.154 16.1577 222.175 12.4583 222.175ZM10.7106 219.987C12.3418 220.629 20.8766 219.404 22.0417 218.558C22.5369 217.945 22.0126 214.358 21.2552 212.987C20.7018 212.782 18.6045 212.695 15.3129 213.074C12.167 213.453 10.128 214.008 9.54539 214.299C9.45801 215.174 10.0988 218.179 10.7106 219.987ZM8.70066 213.628L9.42888 214.328L8.70066 213.628Z" fill="#202D37"/>
<path d="M149.83 280.253C149.306 280.253 148.84 279.845 148.811 279.29C148.694 277.336 148.549 275.411 148.403 273.515L148.286 272.027C148.257 271.473 148.665 270.977 149.219 270.948C149.772 270.919 150.267 271.327 150.296 271.881L150.413 273.369C150.558 275.265 150.704 277.19 150.821 279.174C150.85 279.728 150.442 280.224 149.859 280.253C149.889 280.253 149.859 280.253 149.83 280.253ZM148.898 265.697C148.345 265.697 147.908 265.26 147.879 264.705C147.82 263.451 147.791 262.313 147.791 261.263C147.791 259.805 147.85 258.521 147.937 257.296C147.966 256.742 148.461 256.304 149.044 256.363C149.597 256.392 150.034 256.888 149.976 257.471C149.889 258.638 149.83 259.863 149.83 261.263C149.83 262.284 149.859 263.393 149.889 264.647C149.918 265.201 149.481 265.697 148.898 265.697C148.927 265.697 148.898 265.697 148.898 265.697ZM150.529 251.345C150.384 251.345 150.238 251.316 150.122 251.258C149.597 251.025 149.393 250.412 149.626 249.916C150.442 248.107 151.578 246.678 152.976 245.657C153.559 245.22 154.316 244.811 155.19 244.432C155.714 244.199 156.297 244.461 156.53 244.957C156.763 245.482 156.501 246.066 156.006 246.299C155.277 246.62 154.666 246.941 154.17 247.291C153.034 248.137 152.131 249.274 151.461 250.762C151.287 251.112 150.908 251.345 150.529 251.345ZM162.618 244.432C162.123 244.432 161.715 244.082 161.627 243.586C161.54 243.032 161.89 242.507 162.443 242.39C164.57 242.011 167.045 241.661 169.754 241.369C170.308 241.311 170.803 241.719 170.861 242.273C170.92 242.828 170.512 243.324 169.958 243.382C167.308 243.644 164.89 243.994 162.822 244.374C162.734 244.432 162.676 244.432 162.618 244.432ZM177.124 242.886C176.6 242.886 176.134 242.478 176.105 241.923C176.075 241.369 176.512 240.873 177.066 240.844C180.561 240.64 183.358 240.582 184.406 240.582C184.406 240.582 184.406 240.582 184.435 240.582C184.989 240.582 185.455 241.019 185.455 241.573C185.455 242.128 185.018 242.594 184.465 242.623C183.445 242.653 180.678 242.682 177.211 242.886C177.153 242.886 177.124 242.886 177.124 242.886Z" fill="#202D37"/>
<path d="M305.904 338.973C305.379 338.973 304.942 338.594 304.884 338.069C304.826 337.514 305.234 336.989 305.787 336.931C308.234 336.639 310.652 336.348 313.011 336.027C313.564 335.939 314.089 336.348 314.147 336.902C314.234 337.456 313.827 337.981 313.273 338.039C310.914 338.36 308.467 338.652 306.02 338.944C305.991 338.944 305.962 338.973 305.904 338.973ZM320.381 337.048C319.885 337.048 319.448 336.698 319.361 336.173C319.274 335.618 319.652 335.093 320.206 335.006C322.886 334.597 325.303 334.189 327.372 333.781C327.925 333.664 328.449 334.043 328.566 334.597C328.682 335.152 328.304 335.677 327.75 335.793C325.653 336.202 323.235 336.61 320.526 337.018C320.497 337.048 320.439 337.048 320.381 337.048ZM334.683 334.131C334.246 334.131 333.867 333.868 333.722 333.431C333.547 332.905 333.838 332.322 334.362 332.147C334.741 332.03 335.091 331.884 335.382 331.768C337.13 331.039 338.266 329.872 338.965 328.092C339.169 327.567 339.751 327.305 340.276 327.509C340.8 327.713 341.062 328.297 340.858 328.822C339.955 331.155 338.441 332.73 336.168 333.664C335.819 333.81 335.44 333.956 335.003 334.101C334.887 334.101 334.77 334.131 334.683 334.131ZM340.858 322.287C340.305 322.287 339.839 321.85 339.839 321.267C339.81 319.341 339.664 316.979 339.373 314.091C339.314 313.536 339.722 313.041 340.276 312.982C340.829 312.924 341.324 313.332 341.383 313.886C341.674 316.833 341.849 319.254 341.849 321.267C341.878 321.821 341.441 322.287 340.858 322.287ZM339.518 307.761C339.023 307.761 338.586 307.382 338.499 306.886C338.207 304.698 337.887 302.335 337.538 299.826L337.508 299.681C337.421 299.126 337.829 298.601 338.382 298.543C338.936 298.455 339.46 298.864 339.518 299.418L339.547 299.564C339.897 302.073 340.217 304.435 340.509 306.652C340.596 307.206 340.188 307.732 339.635 307.79C339.606 307.761 339.577 307.761 339.518 307.761Z" fill="#202D37"/>
<path d="M178.143 359.071C175.376 359.042 172.9 358.896 170.745 358.634C170.191 358.575 169.783 358.05 169.871 357.496C169.929 356.942 170.453 356.533 171.007 356.621C173.075 356.883 175.464 357.029 178.143 357.058C178.697 357.058 179.163 357.525 179.163 358.079C179.163 358.604 178.697 359.071 178.143 359.071ZM185.396 358.838C184.872 358.838 184.406 358.429 184.377 357.875C184.348 357.321 184.785 356.825 185.338 356.796C186.94 356.708 188.659 356.562 190.465 356.417C191.018 356.358 191.514 356.796 191.572 357.35C191.63 357.904 191.193 358.4 190.64 358.459C188.834 358.634 187.086 358.75 185.455 358.838C185.455 358.838 185.426 358.838 185.396 358.838ZM163.87 356.825C163.725 356.825 163.579 356.796 163.462 356.737C160.783 355.541 158.889 353.85 157.666 351.545C157.404 351.049 157.578 350.437 158.074 350.174C158.569 349.912 159.18 350.087 159.443 350.583C160.462 352.449 162.035 353.85 164.278 354.871C164.802 355.104 165.035 355.717 164.802 356.212C164.628 356.592 164.249 356.825 163.87 356.825ZM156.763 345.069C156.238 345.069 155.801 344.661 155.743 344.136C155.598 342.444 155.539 340.665 155.481 338.769C155.452 338.127 155.452 337.456 155.423 336.785C155.394 336.231 155.831 335.735 156.413 335.735C156.967 335.706 157.462 336.143 157.462 336.727C157.491 337.398 157.491 338.069 157.52 338.71C157.578 340.577 157.637 342.327 157.753 343.961C157.811 344.515 157.374 345.011 156.821 345.069C156.821 345.069 156.792 345.069 156.763 345.069Z" fill="#202D37"/>
<path d="M28.5377 215.291C46.9181 208.115 71.066 201.173 77.6491 199.364C84.2323 197.526 88.019 195.251 91.3689 203.565C94.6895 211.878 99.5249 225.938 101.418 230.11C103.312 234.281 105.001 237.84 94.2817 241.573C83.5623 245.307 60.1718 252.716 50.501 256.859C40.8302 261.001 37.5386 262.343 32.2954 250.091C27.0522 237.84 24.751 231.014 22.7993 225.034C20.8186 218.996 24.5762 216.837 28.5377 215.291Z" fill="#FBD931"/>
<path d="M76.9237 225.434C80.335 224.62 82.4413 221.19 81.6282 217.774C80.8151 214.358 77.3905 212.248 73.9792 213.063C70.568 213.878 68.4617 217.308 69.2748 220.724C70.0879 224.14 73.5125 226.249 76.9237 225.434Z" fill="#FFFEF2"/>
<path d="M75.4638 226.639C71.4149 226.639 68.0942 223.342 68.0942 219.258C68.0942 215.204 71.3858 211.878 75.4638 211.878C79.5419 211.878 82.8334 215.175 82.8334 219.258C82.8334 223.342 79.5127 226.639 75.4638 226.639ZM75.4638 213.92C72.5218 213.92 70.1332 216.312 70.1332 219.258C70.1332 222.205 72.5218 224.597 75.4638 224.597C78.4058 224.597 80.7944 222.205 80.7944 219.258C80.7944 216.312 78.4058 213.92 75.4638 213.92Z" fill="#202D37"/>
<path d="M84.2905 224.159C84.2031 224.159 84.1157 224.159 84.0283 224.159C79.9794 224.013 76.7752 220.6 76.9208 216.545C77.0665 212.491 80.4746 209.282 84.5235 209.428C88.5724 209.574 91.7766 212.986 91.631 217.041C91.5144 221.008 88.2229 224.159 84.2905 224.159ZM78.9599 216.574C78.9016 218.004 79.4259 219.346 80.3872 220.396C81.3484 221.446 82.6884 222.029 84.0866 222.088C85.5139 222.146 86.8538 221.621 87.9025 220.658C88.9511 219.696 89.5337 218.354 89.5919 216.954C89.6793 214.007 87.3781 211.528 84.4361 211.44C81.5232 211.324 79.0473 213.657 78.9599 216.574Z" fill="#202D37"/>
<path d="M82.6006 233.464C82.1928 233.464 81.785 233.201 81.6393 232.764C81.4645 232.239 81.7267 231.655 82.2801 231.451C87.5234 229.643 91.7179 228.243 91.7471 228.243C92.2714 228.067 92.854 228.359 93.0287 228.884C93.2035 229.409 92.9122 229.993 92.3879 230.168C92.3588 230.168 88.1642 231.568 82.9501 233.376C82.8336 233.435 82.7171 233.464 82.6006 233.464Z" fill="#202D37"/>
<path d="M69.1138 238.248C68.706 238.248 68.3274 238.014 68.1817 237.606C67.9778 237.081 68.2108 236.498 68.7352 236.264C70.1916 235.652 71.5607 235.097 72.7841 234.572C74.4153 233.901 76.2504 233.172 78.2021 232.385C78.7264 232.18 79.309 232.443 79.5129 232.968C79.7168 233.493 79.4546 234.076 78.9303 234.281C76.9787 235.039 75.1727 235.798 73.5414 236.468C72.318 236.964 70.949 237.548 69.4925 238.16C69.376 238.219 69.2304 238.248 69.1138 238.248Z" fill="#202D37"/>
<path d="M55.2778 244.14C54.87 244.14 54.5205 243.907 54.3457 243.528C54.1127 243.003 54.3457 242.419 54.87 242.186C57.7247 240.932 60.958 239.561 64.2204 238.19C64.7447 237.956 65.3273 238.219 65.5603 238.744C65.7934 239.269 65.5312 239.852 65.0069 240.086C61.7445 241.457 58.5403 242.857 55.6856 244.082C55.54 244.111 55.3943 244.14 55.2778 244.14Z" fill="#202D37"/>
<path d="M43.9466 249.274C43.568 249.274 43.2184 249.07 43.0436 248.72C42.7815 248.224 42.9854 247.612 43.5097 247.349C45.1992 246.503 48.1121 245.161 52.161 243.382C52.6853 243.149 53.2679 243.382 53.5009 243.907C53.734 244.432 53.5009 245.016 52.9766 245.249C48.9568 246.999 46.1022 248.341 44.4127 249.158C44.2379 249.245 44.0923 249.274 43.9466 249.274Z" fill="#202D37"/>
</svg>
